ffmpeg started on 2016-12-06 at 23:00:22
Report written to "Output/x264/results/ffmpeg/sintelmedium9000k.log"
Command line:
Tools/ffmpeg/ffmpeg -benchmark -y -i Input/y4m/sintel.y4m -c:v libx264 -preset medium -b:v 9000k -an Output/x264/encoded/sintelmedium9000k.mkv
ffmpeg version N-82227-gdb23fde Copyright (c) 2000-2016 the FFmpeg developers
  built with gcc 5.4.0 (Ubuntu 5.4.0-6ubuntu1~16.04.2) 20160609
  configuration: --prefix=/home/jaroslav/ffmpeg_build --pkg-config-flags=--static --extra-cflags=-I/home/jaroslav/ffmpeg_build/include --extra-ldflags=-L/home/jaroslav/ffmpeg_build/lib --bindir=/home/jaroslav/bin --enable-gpl --enable-libass --enable-libfdk-aac --enable-libfreetype --enable-libmp3lame --enable-libopus --enable-libtheora --enable-libvorbis --enable-libvpx --enable-libx264 --enable-libx265 --enable-nvenc --enable-libmfx --enable-libxvid --enable-libgsm --enable-libopencore-amrnb --enable-version3 --enable-nonfree
  libavutil      55. 35.100 / 55. 35.100
  libavcodec     57. 66.101 / 57. 66.101
  libavformat    57. 57.100 / 57. 57.100
  libavdevice    57.  2.100 / 57.  2.100
  libavfilter     6. 66.100 /  6. 66.100
  libswscale      4.  3.100 /  4.  3.100
  libswresample   2.  4.100 /  2.  4.100
  libpostproc    54.  2.100 / 54.  2.100
Input #0, yuv4mpegpipe, from 'Input/y4m/sintel.y4m':
  Duration: 00:00:20.83, start: 0.000000, bitrate: 2057307 kb/s
    Stream #0:0: Video: rawvideo (I420 / 0x30323449), yuv420p(progressive), 4096x1744, SAR 1:1 DAR 256:109, 24 fps, 24 tbr, 24 tbn, 24 tbc
[libx264 @ 0x2b3b1c0] using SAR=1/1
[libx264 @ 0x2b3b1c0] using cpu capabilities: MMX2 SSE2Fast SSSE3 SSE4.2 AVX FMA3 AVX2 LZCNT BMI2
[libx264 @ 0x2b3b1c0] profile High, level 5.1
[libx264 @ 0x2b3b1c0] 264 - core 148 - H.264/MPEG-4 AVC codec - Copyleft 2003-2016 - http://www.videolan.org/x264.html - options: cabac=1 ref=3 deblock=1:0:0 analyse=0x3:0x113 me=hex subme=7 psy=1 psy_rd=1.00:0.00 mixed_ref=1 me_range=16 chroma_me=1 trellis=1 8x8dct=1 cqm=0 deadzone=21,11 fast_pskip=1 chroma_qp_offset=-2 threads=6 lookahead_threads=1 sliced_threads=0 nr=0 decimate=1 interlaced=0 bluray_compat=0 constrained_intra=0 bframes=3 b_pyramid=2 b_adapt=1 b_bias=0 direct=1 weightb=1 open_gop=0 weightp=2 keyint=250 keyint_min=24 scenecut=40 intra_refresh=0 rc_lookahead=40 rc=abr mbtree=1 bitrate=9000 ratetol=1.0 qcomp=0.60 qpmin=0 qpmax=69 qpstep=4 ip_ratio=1.40 aq=1:1.00
Output #0, matroska, to 'Output/x264/encoded/sintelmedium9000k.mkv':
  Metadata:
    encoder         : Lavf57.57.100
    Stream #0:0: Video: h264 (libx264) (H264 / 0x34363248), yuv420p, 4096x1744 [SAR 1:1 DAR 256:109], q=-1--1, 9000 kb/s, 24 fps, 1k tbn, 24 tbc
    Metadata:
      encoder         : Lavc57.66.101 libx264
    Side data:
      cpb: bitrate max/min/avg: 0/0/9000000 buffer size: 0 vbv_delay: -1
Stream mapping:
  Stream #0:0 -> #0:0 (rawvideo (native) -> h264 (libx264))
Press [q] to stop, [?] for help
frame=    9 fps=0.0 q=0.0 size=       0kB time=00:00:00.00 bitrate=N/A speed=   0x    frame=   18 fps= 17 q=0.0 size=       0kB time=00:00:00.00 bitrate=N/A speed=   0x    frame=   27 fps= 17 q=0.0 size=       0kB time=00:00:00.00 bitrate=N/A speed=   0x    frame=   33 fps= 15 q=0.0 size=       0kB time=00:00:00.00 bitrate=N/A speed=   0x    frame=   42 fps= 15 q=0.0 size=       0kB time=00:00:00.00 bitrate=N/A speed=   0x    frame=   47 fps=8.9 q=0.0 size=       0kB time=00:00:00.00 bitrate=N/A speed=   0x    frame=   48 fps=5.6 q=0.0 size=       0kB time=00:00:00.00 bitrate=N/A speed=   0x    frame=   49 fps=5.1 q=0.0 size=       0kB time=00:00:00.00 bitrate=N/A speed=   0x    frame=   54 fps=5.2 q=35.0 size=       1kB time=00:00:00.04 bitrate= 136.6kbits/s speed=0.00411x    frame=   57 fps=5.1 q=43.0 size=       1kB time=00:00:00.16 bitrate=  35.0kbits/s speed=0.0149x    frame=   61 fps=5.2 q=44.0 size=       1kB time=00:00:00.33 bitrate=  17.6kbits/s speed=0.0283x    frame=   66 fps=5.3 q=43.0 size=       1kB time=00:00:00.54 bitrate=  10.8kbits/s speed=0.0435x    frame=   70 fps=5.4 q=43.0 size=       1kB time=00:00:00.70 bitrate=   8.3kbits/s speed=0.0546x    frame=   75 fps=5.5 q=42.0 size=       1kB time=00:00:00.91 bitrate=   6.4kbits/s speed=0.0675x    frame=   81 fps=5.7 q=42.0 size=       1kB time=00:00:01.16 bitrate=   5.0kbits/s speed=0.0818x    frame=   85 fps=5.7 q=41.0 size=       1kB time=00:00:01.33 bitrate=   4.4kbits/s speed=0.0901x    frame=   90 fps=5.9 q=41.0 size=       1kB time=00:00:01.54 bitrate=   3.8kbits/s speed= 0.1x    frame=   95 fps=6.0 q=40.0 size=       1kB time=00:00:01.75 bitrate=   3.4kbits/s speed=0.11x    frame=  101 fps=6.1 q=40.0 size=       1kB time=00:00:02.00 bitrate=   2.9kbits/s speed=0.121x    frame=  105 fps=6.1 q=40.0 size=       1kB time=00:00:02.16 bitrate=   2.7kbits/s speed=0.126x    frame=  109 fps=6.1 q=40.0 size=       1kB time=00:00:02.33 bitrate=   2.5kbits/s speed=0.131x    frame=  113 fps=6.2 q=40.0 size=       1kB time=00:00:02.50 bitrate=   2.3kbits/s speed=0.137x    frame=  117 fps=6.2 q=39.0 size=       1kB time=00:00:02.66 bitrate=   2.2kbits/s speed=0.141x    frame=  122 fps=6.2 q=39.0 size=       1kB time=00:00:02.87 bitrate=   2.0kbits/s speed=0.147x    frame=  126 fps=6.3 q=39.0 size=       1kB time=00:00:03.04 bitrate=   1.9kbits/s speed=0.151x    frame=  130 fps=6.2 q=39.0 size=       1kB time=00:00:03.20 bitrate=   1.8kbits/s speed=0.154x    frame=  134 fps=6.3 q=39.0 size=       1kB time=00:00:03.37 bitrate=   1.7kbits/s speed=0.158x    frame=  138 fps=6.3 q=38.0 size=       1kB time=00:00:03.54 bitrate=   1.7kbits/s speed=0.161x    frame=  142 fps=6.3 q=36.0 size=       1kB time=00:00:03.70 bitrate=   1.6kbits/s speed=0.165x    frame=  147 fps=6.4 q=38.0 size=    4863kB time=00:00:03.91 bitrate=10167.6kbits/s speed=0.17x    frame=  153 fps=6.5 q=38.0 size=    4863kB time=00:00:04.16 bitrate=9557.7kbits/s speed=0.176x    frame=  155 fps=6.4 q=38.0 size=    4863kB time=00:00:04.25 bitrate=9371.1kbits/s speed=0.176x    frame=  161 fps=6.5 q=35.0 size=    4863kB time=00:00:04.50 bitrate=8850.6kbits/s speed=0.182x    frame=  166 fps=6.5 q=37.0 size=    4863kB time=00:00:04.70 bitrate=8459.7kbits/s speed=0.185x    frame=  172 fps=6.6 q=37.0 size=    4863kB time=00:00:04.95 bitrate=8033.2kbits/s speed=0.19x    frame=  176 fps=6.6 q=37.0 size=    4863kB time=00:00:05.12 bitrate=7771.5kbits/s speed=0.193x    frame=  180 fps=6.6 q=37.0 size=    4863kB time=00:00:05.29 bitrate=7526.3kbits/s speed=0.195x    frame=  184 fps=6.7 q=37.0 size=    4863kB time=00:00:05.45 bitrate=7297.4kbits/s speed=0.197x    frame=  189 fps=6.7 q=37.0 size=    4863kB time=00:00:05.66 bitrate=7028.3kbits/s speed=0.201x    frame=  193 fps=6.7 q=37.0 size=    4863kB time=00:00:05.83 bitrate=6828.4kbits/s speed=0.203x    frame=  199 fps=6.8 q=37.0 size=    4863kB time=00:00:06.08 bitrate=6547.8kbits/s speed=0.207x    frame=  203 fps=6.8 q=37.0 size=    4863kB time=00:00:06.25 bitrate=6372.8kbits/s speed=0.209x    frame=  210 fps=6.9 q=37.0 size=    7198kB time=00:00:06.54 bitrate=9012.3kbits/s speed=0.215x    frame=  214 fps=6.9 q=37.0 size=    7198kB time=00:00:06.70 bitrate=8789.3kbits/s speed=0.216x    frame=  218 fps=6.9 q=37.0 size=    7198kB time=00:00:06.87 bitrate=8575.8kbits/s speed=0.218x    frame=  222 fps=6.9 q=36.0 size=    7198kB time=00:00:07.04 bitrate=8372.5kbits/s speed=0.219x    frame=  227 fps=6.9 q=36.0 size=    7198kB time=00:00:07.25 bitrate=8132.3kbits/s speed=0.222x    frame=  232 fps=7.0 q=36.0 size=    7198kB time=00:00:07.45 bitrate=7905.5kbits/s speed=0.223x    frame=  240 fps=7.0 q=36.0 size=    8198kB time=00:00:07.79 bitrate=8617.7kbits/s speed=0.229x    frame=  246 fps=7.1 q=36.0 size=    8198kB time=00:00:08.04 bitrate=8349.9kbits/s speed=0.232x    frame=  251 fps=7.1 q=36.0 size=    8198kB time=00:00:08.25 bitrate=8139.4kbits/s speed=0.233x    frame=  256 fps=7.1 q=36.0 size=    8198kB time=00:00:08.45 bitrate=7939.2kbits/s speed=0.235x    frame=  260 fps=7.1 q=36.0 size=    8198kB time=00:00:08.62 bitrate=7785.5kbits/s speed=0.237x    frame=  266 fps=7.1 q=36.0 size=    8198kB time=00:00:08.87 bitrate=7566.3kbits/s speed=0.238x    frame=  272 fps=7.2 q=36.0 size=    8198kB time=00:00:09.12 bitrate=7359.0kbits/s speed=0.242x    frame=  276 fps=7.2 q=36.0 size=    8198kB time=00:00:09.29 bitrate=7226.7kbits/s speed=0.243x    frame=  283 fps=7.3 q=35.0 size=    8198kB time=00:00:09.58 bitrate=7007.3kbits/s speed=0.247x    frame=  286 fps=7.3 q=35.0 size=    8198kB time=00:00:09.70 bitrate=6917.1kbits/s speed=0.247x    frame=  291 fps=7.3 q=35.0 size=    8198kB time=00:00:09.91 bitrate=6771.3kbits/s speed=0.249x    frame=  299 fps=7.4 q=35.0 size=    8198kB time=00:00:10.25 bitrate=6551.4kbits/s speed=0.254x    frame=  303 fps=7.4 q=35.0 size=    8198kB time=00:00:10.41 bitrate=6446.3kbits/s speed=0.254x    frame=  309 fps=7.4 q=35.0 size=    8198kB time=00:00:10.66 bitrate=6295.3kbits/s speed=0.256x    frame=  312 fps=7.4 q=35.0 size=    8198kB time=00:00:10.79 bitrate=6222.4kbits/s speed=0.255x    frame=  322 fps=7.4 q=34.0 size=   11073kB time=00:00:11.20 bitrate=8092.4kbits/s speed=0.259x    frame=  330 fps=7.5 q=34.0 size=   11073kB time=00:00:11.54 bitrate=7858.3kbits/s speed=0.263x    frame=  337 fps=7.6 q=34.0 size=   11073kB time=00:00:11.83 bitrate=7665.0kbits/s speed=0.266x    frame=  344 fps=7.6 q=34.0 size=   11073kB time=00:00:12.12 bitrate=7480.5kbits/s speed=0.269x    frame=  350 fps=7.7 q=34.0 size=   11073kB time=00:00:12.37 bitrate=7329.4kbits/s speed=0.271x    frame=  357 fps=7.7 q=33.0 size=   11073kB time=00:00:12.66 bitrate=7160.4kbits/s speed=0.275x    frame=  363 fps=7.8 q=33.0 size=   11073kB time=00:00:12.91 bitrate=7021.8kbits/s speed=0.277x    frame=  370 fps=7.8 q=33.0 size=   11073kB time=00:00:13.20 bitrate=6867.1kbits/s speed=0.28x    frame=  378 fps=7.9 q=32.0 size=   11073kB time=00:00:13.54 bitrate=6697.8kbits/s speed=0.282x    frame=  386 fps=7.9 q=32.0 size=   11073kB time=00:00:13.87 bitrate=6537.1kbits/s speed=0.286x    frame=  393 fps=8.0 q=32.0 size=   11073kB time=00:00:14.16 bitrate=6402.3kbits/s speed=0.289x    frame=  400 fps=8.1 q=31.0 size=   11073kB time=00:00:14.45 bitrate=6273.5kbits/s speed=0.291x    frame=  406 fps=8.1 q=31.0 size=   11073kB time=00:00:14.70 bitrate=6166.8kbits/s speed=0.293x    frame=  412 fps=8.1 q=31.0 size=   11073kB time=00:00:14.95 bitrate=6063.8kbits/s speed=0.295x    frame=  418 fps=8.1 q=31.0 size=   13859kB time=00:00:15.20 bitrate=7464.6kbits/s speed=0.296x    frame=  426 fps=8.1 q=31.0 size=   13859kB time=00:00:15.54 bitrate=7304.2kbits/s speed=0.297x    frame=  431 fps=8.2 q=31.0 size=   13859kB time=00:00:15.75 bitrate=7207.8kbits/s speed=0.298x    frame=  438 fps=8.2 q=31.0 size=   13859kB time=00:00:16.04 bitrate=7076.6kbits/s speed=0.299x    frame=  445 fps=8.2 q=31.0 size=   13859kB time=00:00:16.33 bitrate=6950.5kbits/s speed=0.301x    frame=  449 fps=8.2 q=31.0 size=   13859kB time=00:00:16.50 bitrate=6880.1kbits/s speed=0.301x    frame=  455 fps=8.2 q=31.0 size=   13859kB time=00:00:16.75 bitrate=6777.5kbits/s speed=0.301x    frame=  461 fps=8.2 q=31.0 size=   13859kB time=00:00:17.00 bitrate=6677.8kbits/s speed=0.302x    frame=  471 fps=8.2 q=31.0 size=   16327kB time=00:00:17.41 bitrate=7678.7kbits/s speed=0.305x    frame=  475 fps=8.2 q=31.0 size=   16327kB time=00:00:17.58 bitrate=7606.2kbits/s speed=0.305x    frame=  482 fps=8.3 q=31.0 size=   16327kB time=00:00:17.87 bitrate=7481.9kbits/s speed=0.306x    frame=  489 fps=8.3 q=31.0 size=   16327kB time=00:00:18.16 bitrate=7361.7kbits/s speed=0.309x    frame=  495 fps=8.3 q=31.0 size=   16327kB time=00:00:18.41 bitrate=7261.8kbits/s speed=0.31x    frame=  500 fps=8.3 q=31.0 size=   16327kB time=00:00:18.62 bitrate=7180.7kbits/s speed=0.311x    frame=  500 fps=7.8 q=-1.0 Lsize=   19955kB time=00:00:20.70 bitrate=7893.8kbits/s speed=0.325x    
video:19950kB audio:0kB subtitle:0kB other streams:0kB global headers:0kB muxing overhead: 0.024289%
bench: utime=208.408s
bench: maxrss=1573996kB
[libx264 @ 0x2b3b1c0] frame I:8     Avg QP:26.11  size:140456
[libx264 @ 0x2b3b1c0] frame P:269   Avg QP:31.34  size: 49602
[libx264 @ 0x2b3b1c0] frame B:223   Avg QP:29.16  size: 26735
[libx264 @ 0x2b3b1c0] consecutive B-frames: 37.0%  8.4%  6.6% 48.0%
[libx264 @ 0x2b3b1c0] mb I  I16..4: 25.2% 70.0%  4.7%
[libx264 @ 0x2b3b1c0] mb P  I16..4: 18.9% 22.4%  0.4%  P16..4: 23.5%  2.4%  0.7%  0.0%  0.0%    skip:31.8%
[libx264 @ 0x2b3b1c0] mb B  I16..4:  1.3%  2.3%  0.2%  B16..8: 30.1%  2.0%  0.3%  direct: 0.9%  skip:62.9%  L0:42.2% L1:55.3% BI: 2.5%
[libx264 @ 0x2b3b1c0] final ratefactor: 28.10
[libx264 @ 0x2b3b1c0] 8x8 transform intra:55.2% inter:91.5%
[libx264 @ 0x2b3b1c0] coded y,uvDC,uvAC intra: 15.3% 23.6% 1.8% inter: 5.9% 5.6% 0.0%
[libx264 @ 0x2b3b1c0] i16 v,h,dc,p: 29% 32%  8% 31%
[libx264 @ 0x2b3b1c0] i8 v,h,dc,ddl,ddr,vr,hd,vl,hu: 23% 16% 42%  3%  3%  3%  4%  3%  3%
[libx264 @ 0x2b3b1c0] i4 v,h,dc,ddl,ddr,vr,hd,vl,hu: 22% 24% 10%  5% 10%  8% 11%  5%  5%
[libx264 @ 0x2b3b1c0] i8c dc,h,v,p: 75% 12% 11%  1%
[libx264 @ 0x2b3b1c0] Weighted P-Frames: Y:1.1% UV:0.7%
[libx264 @ 0x2b3b1c0] ref P L0: 69.1% 17.8%  9.5%  3.6%  0.0%
[libx264 @ 0x2b3b1c0] ref B L0: 92.7%  6.0%  1.2%
[libx264 @ 0x2b3b1c0] ref B L1: 98.0%  2.0%
[libx264 @ 0x2b3b1c0] kb/s:7844.53
